<mxfile host="app.diagrams.net" modified="2023-06-06T05:04:54.116Z" agent="Mozilla/5.0 (Windows NT 10.0; Win64; x64) AppleWebKit/537.36 (KHTML, like Gecko) Chrome/77.0.3865.120 Safari/537.36" etag="AuVp8LwzQyrIp8ZeH7Ra" version="21.2.9" type="device">
  <diagram name="Page-1" id="Es7vMbn4bth-LO1SLi5Q">
    <mxGraphModel dx="3585" dy="2390" grid="0" gridSize="10" guides="1" tooltips="1" connect="1" arrows="1" fold="1" page="0" pageScale="1" pageWidth="850" pageHeight="1100" math="0" shadow="0">
      <root>
        <mxCell id="0" />
        <mxCell id="1" parent="0" />
        <mxCell id="isTXegSV-cHEMRRay1OZ-20" value="" style="rounded=0;whiteSpace=wrap;html=1;" vertex="1" parent="1">
          <mxGeometry x="1683" y="-325" width="1100" height="848" as="geometry" />
        </mxCell>
        <mxCell id="AHk2jDvn3Jps-UBXoMTn-1" value="" style="rounded=0;whiteSpace=wrap;html=1;" parent="1" vertex="1">
          <mxGeometry x="256" y="-333" width="974" height="447" as="geometry" />
        </mxCell>
        <mxCell id="AHk2jDvn3Jps-UBXoMTn-32" value="" style="rounded=0;whiteSpace=wrap;html=1;" parent="1" vertex="1">
          <mxGeometry x="803" y="-258" width="314" height="141" as="geometry" />
        </mxCell>
        <mxCell id="IE05HWNUYxFMif8N0jNp-12" style="edgeStyle=orthogonalEdgeStyle;rounded=0;orthogonalLoop=1;jettySize=auto;html=1;entryX=0.5;entryY=0;entryDx=0;entryDy=0;entryPerimeter=0;" parent="1" source="IE05HWNUYxFMif8N0jNp-1" target="IE05HWNUYxFMif8N0jNp-3" edge="1">
          <mxGeometry relative="1" as="geometry" />
        </mxCell>
        <mxCell id="IE05HWNUYxFMif8N0jNp-13" style="edgeStyle=orthogonalEdgeStyle;rounded=0;orthogonalLoop=1;jettySize=auto;html=1;entryX=0.418;entryY=0.012;entryDx=0;entryDy=0;entryPerimeter=0;" parent="1" source="IE05HWNUYxFMif8N0jNp-1" target="IE05HWNUYxFMif8N0jNp-5" edge="1">
          <mxGeometry relative="1" as="geometry" />
        </mxCell>
        <mxCell id="IE05HWNUYxFMif8N0jNp-14" style="edgeStyle=orthogonalEdgeStyle;rounded=0;orthogonalLoop=1;jettySize=auto;html=1;entryX=0.387;entryY=-0.008;entryDx=0;entryDy=0;entryPerimeter=0;" parent="1" source="IE05HWNUYxFMif8N0jNp-1" target="IE05HWNUYxFMif8N0jNp-7" edge="1">
          <mxGeometry relative="1" as="geometry" />
        </mxCell>
        <mxCell id="IE05HWNUYxFMif8N0jNp-1" value="ubuntu 22.04 | Go | PostgreSQL | Redis" style="ellipse;shape=cloud;whiteSpace=wrap;html=1;" parent="1" vertex="1">
          <mxGeometry x="376" y="146" width="321" height="134" as="geometry" />
        </mxCell>
        <mxCell id="IE05HWNUYxFMif8N0jNp-2" value="Работник" style="shape=umlActor;verticalLabelPosition=bottom;verticalAlign=top;html=1;outlineConnect=0;" parent="1" vertex="1">
          <mxGeometry x="539.5" y="428" width="30" height="60" as="geometry" />
        </mxCell>
        <mxCell id="IE05HWNUYxFMif8N0jNp-3" value="смартфон" style="shape=note;whiteSpace=wrap;html=1;backgroundOutline=1;darkOpacity=0.05;" parent="1" vertex="1">
          <mxGeometry x="517" y="320" width="75" height="86" as="geometry" />
        </mxCell>
        <mxCell id="IE05HWNUYxFMif8N0jNp-4" value="Работник" style="shape=umlActor;verticalLabelPosition=bottom;verticalAlign=top;html=1;outlineConnect=0;" parent="1" vertex="1">
          <mxGeometry x="650.5" y="428" width="30" height="60" as="geometry" />
        </mxCell>
        <mxCell id="IE05HWNUYxFMif8N0jNp-39" style="edgeStyle=orthogonalEdgeStyle;rounded=0;orthogonalLoop=1;jettySize=auto;html=1;entryX=0.5;entryY=0;entryDx=0;entryDy=0;" parent="1" source="IE05HWNUYxFMif8N0jNp-5" target="IE05HWNUYxFMif8N0jNp-15" edge="1">
          <mxGeometry relative="1" as="geometry" />
        </mxCell>
        <mxCell id="IE05HWNUYxFMif8N0jNp-5" value="смартфон" style="shape=note;whiteSpace=wrap;html=1;backgroundOutline=1;darkOpacity=0.05;" parent="1" vertex="1">
          <mxGeometry x="628" y="320" width="75" height="86" as="geometry" />
        </mxCell>
        <mxCell id="IE05HWNUYxFMif8N0jNp-6" value="Работник" style="shape=umlActor;verticalLabelPosition=bottom;verticalAlign=top;html=1;outlineConnect=0;" parent="1" vertex="1">
          <mxGeometry x="429.5" y="428" width="30" height="60" as="geometry" />
        </mxCell>
        <mxCell id="IE05HWNUYxFMif8N0jNp-7" value="смартфон" style="shape=note;whiteSpace=wrap;html=1;backgroundOutline=1;darkOpacity=0.05;" parent="1" vertex="1">
          <mxGeometry x="407" y="320" width="75" height="86" as="geometry" />
        </mxCell>
        <mxCell id="IE05HWNUYxFMif8N0jNp-10" style="edgeStyle=orthogonalEdgeStyle;rounded=0;orthogonalLoop=1;jettySize=auto;html=1;" parent="1" source="IE05HWNUYxFMif8N0jNp-8" target="IE05HWNUYxFMif8N0jNp-9" edge="1">
          <mxGeometry relative="1" as="geometry" />
        </mxCell>
        <mxCell id="IE05HWNUYxFMif8N0jNp-8" value="Oracle" style="shape=cylinder3;whiteSpace=wrap;html=1;boundedLbl=1;backgroundOutline=1;size=15;" parent="1" vertex="1">
          <mxGeometry x="94" y="178" width="60" height="80" as="geometry" />
        </mxCell>
        <mxCell id="IE05HWNUYxFMif8N0jNp-11" style="edgeStyle=orthogonalEdgeStyle;rounded=0;orthogonalLoop=1;jettySize=auto;html=1;" parent="1" source="IE05HWNUYxFMif8N0jNp-9" target="IE05HWNUYxFMif8N0jNp-1" edge="1">
          <mxGeometry relative="1" as="geometry" />
        </mxCell>
        <mxCell id="IE05HWNUYxFMif8N0jNp-9" value="Go" style="shape=step;perimeter=stepPerimeter;whiteSpace=wrap;html=1;fixedSize=1;" parent="1" vertex="1">
          <mxGeometry x="194" y="220" width="102" height="47" as="geometry" />
        </mxCell>
        <mxCell id="IE05HWNUYxFMif8N0jNp-15" value="" style="rounded=0;whiteSpace=wrap;html=1;" parent="1" vertex="1">
          <mxGeometry x="750" y="393" width="487" height="334" as="geometry" />
        </mxCell>
        <mxCell id="IE05HWNUYxFMif8N0jNp-16" value="" style="rounded=0;whiteSpace=wrap;html=1;" parent="1" vertex="1">
          <mxGeometry x="1105" y="631" width="115" height="34" as="geometry" />
        </mxCell>
        <mxCell id="IE05HWNUYxFMif8N0jNp-17" value="" style="triangle;whiteSpace=wrap;html=1;rotation=90;" parent="1" vertex="1">
          <mxGeometry x="1200.5" y="646.5" width="13" height="23" as="geometry" />
        </mxCell>
        <mxCell id="IE05HWNUYxFMif8N0jNp-18" value="# 141" style="text;html=1;strokeColor=none;fillColor=none;align=center;verticalAlign=middle;whiteSpace=wrap;rounded=0;" parent="1" vertex="1">
          <mxGeometry x="1124" y="633" width="60" height="30" as="geometry" />
        </mxCell>
        <mxCell id="IE05HWNUYxFMif8N0jNp-19" value="&lt;font&gt;92&lt;/font&gt; т." style="text;html=1;strokeColor=none;fillColor=none;align=center;verticalAlign=middle;whiteSpace=wrap;rounded=0;fontSize=40;fontColor=#22FF12;" parent="1" vertex="1">
          <mxGeometry x="1107" y="673.75" width="113" height="51" as="geometry" />
        </mxCell>
        <mxCell id="IE05HWNUYxFMif8N0jNp-20" value="" style="rounded=0;whiteSpace=wrap;html=1;" parent="1" vertex="1">
          <mxGeometry x="844" y="418" width="115" height="34" as="geometry" />
        </mxCell>
        <mxCell id="IE05HWNUYxFMif8N0jNp-21" value="" style="triangle;whiteSpace=wrap;html=1;rotation=90;" parent="1" vertex="1">
          <mxGeometry x="939.5" y="433.5" width="13" height="23" as="geometry" />
        </mxCell>
        <mxCell id="IE05HWNUYxFMif8N0jNp-22" value="# 205" style="text;html=1;strokeColor=none;fillColor=none;align=center;verticalAlign=middle;whiteSpace=wrap;rounded=0;" parent="1" vertex="1">
          <mxGeometry x="863" y="420" width="60" height="30" as="geometry" />
        </mxCell>
        <mxCell id="IE05HWNUYxFMif8N0jNp-23" value="РЕЙСЫ" style="swimlane;fontStyle=0;childLayout=stackLayout;horizontal=1;startSize=30;horizontalStack=0;resizeParent=1;resizeParentMax=0;resizeLast=0;collapsible=1;marginBottom=0;whiteSpace=wrap;html=1;" parent="1" vertex="1">
          <mxGeometry x="758" y="463" width="342" height="120" as="geometry" />
        </mxCell>
        <mxCell id="IE05HWNUYxFMif8N0jNp-24" value="&lt;font color=&quot;#0fff2f&quot;&gt;11:35 - 11:48&lt;/font&gt;, ср. скорость: &lt;font color=&quot;#eaff2e&quot;&gt;17.6&lt;/font&gt;&lt;font color=&quot;#101203&quot;&gt;, объём: 80.000&lt;/font&gt;&amp;nbsp;" style="text;strokeColor=none;fillColor=none;align=left;verticalAlign=middle;spacingLeft=4;spacingRight=4;overflow=hidden;points=[[0,0.5],[1,0.5]];portConstraint=eastwest;rotatable=0;whiteSpace=wrap;html=1;" parent="IE05HWNUYxFMif8N0jNp-23" vertex="1">
          <mxGeometry y="30" width="342" height="30" as="geometry" />
        </mxCell>
        <mxCell id="IE05HWNUYxFMif8N0jNp-25" value="&lt;font color=&quot;#f7ff00&quot;&gt;11:52 - 12:03&lt;/font&gt;, ср. скорость: &lt;font color=&quot;#ff5752&quot;&gt;15.6&lt;/font&gt;, объём: 65.000" style="text;strokeColor=none;fillColor=none;align=left;verticalAlign=middle;spacingLeft=4;spacingRight=4;overflow=hidden;points=[[0,0.5],[1,0.5]];portConstraint=eastwest;rotatable=0;whiteSpace=wrap;html=1;" parent="IE05HWNUYxFMif8N0jNp-23" vertex="1">
          <mxGeometry y="60" width="342" height="30" as="geometry" />
        </mxCell>
        <mxCell id="IE05HWNUYxFMif8N0jNp-26" value="&lt;font color=&quot;#ff0800&quot;&gt;12:11 - 12:25&lt;/font&gt;, ср. скорость: &lt;font color=&quot;#0fff17&quot;&gt;18.6&lt;/font&gt;, объём: 30.000" style="text;strokeColor=none;fillColor=none;align=left;verticalAlign=middle;spacingLeft=4;spacingRight=4;overflow=hidden;points=[[0,0.5],[1,0.5]];portConstraint=eastwest;rotatable=0;whiteSpace=wrap;html=1;" parent="IE05HWNUYxFMif8N0jNp-23" vertex="1">
          <mxGeometry y="90" width="342" height="30" as="geometry" />
        </mxCell>
        <mxCell id="IE05HWNUYxFMif8N0jNp-27" value="Модуль производительности" style="text;html=1;strokeColor=none;fillColor=none;align=center;verticalAlign=middle;whiteSpace=wrap;rounded=0;fontStyle=2" parent="1" vertex="1">
          <mxGeometry x="750" y="393" width="190" height="16" as="geometry" />
        </mxCell>
        <mxCell id="IE05HWNUYxFMif8N0jNp-28" value="Мгновенный вес" style="text;html=1;strokeColor=none;fillColor=none;align=center;verticalAlign=middle;whiteSpace=wrap;rounded=0;" parent="1" vertex="1">
          <mxGeometry x="1110" y="604" width="107" height="23" as="geometry" />
        </mxCell>
        <mxCell id="IE05HWNUYxFMif8N0jNp-29" value="Расстояние" style="text;html=1;strokeColor=none;fillColor=none;align=center;verticalAlign=middle;whiteSpace=wrap;rounded=0;" parent="1" vertex="1">
          <mxGeometry x="876.5" y="602" width="107" height="23" as="geometry" />
        </mxCell>
        <mxCell id="IE05HWNUYxFMif8N0jNp-30" value="" style="rounded=0;whiteSpace=wrap;html=1;" parent="1" vertex="1">
          <mxGeometry x="871.5" y="629" width="115" height="34" as="geometry" />
        </mxCell>
        <mxCell id="IE05HWNUYxFMif8N0jNp-31" value="" style="triangle;whiteSpace=wrap;html=1;rotation=90;" parent="1" vertex="1">
          <mxGeometry x="967" y="644.5" width="13" height="23" as="geometry" />
        </mxCell>
        <mxCell id="IE05HWNUYxFMif8N0jNp-32" value="# 141" style="text;html=1;strokeColor=none;fillColor=none;align=center;verticalAlign=middle;whiteSpace=wrap;rounded=0;" parent="1" vertex="1">
          <mxGeometry x="890.5" y="631" width="60" height="30" as="geometry" />
        </mxCell>
        <mxCell id="IE05HWNUYxFMif8N0jNp-33" value="27 м." style="text;html=1;strokeColor=none;fillColor=none;align=center;verticalAlign=middle;whiteSpace=wrap;rounded=0;fontSize=40;fontColor=#EAFF2E;" parent="1" vertex="1">
          <mxGeometry x="873.5" y="671.75" width="113" height="51" as="geometry" />
        </mxCell>
        <mxCell id="IE05HWNUYxFMif8N0jNp-34" value="Общий объём:&amp;nbsp;" style="text;html=1;strokeColor=none;fillColor=none;align=center;verticalAlign=middle;whiteSpace=wrap;rounded=0;" parent="1" vertex="1">
          <mxGeometry x="1140.5" y="413" width="60" height="30" as="geometry" />
        </mxCell>
        <mxCell id="IE05HWNUYxFMif8N0jNp-35" value="220 000" style="rounded=0;whiteSpace=wrap;html=1;fontColor=#00FF22;" parent="1" vertex="1">
          <mxGeometry x="1139" y="450" width="83" height="36" as="geometry" />
        </mxCell>
        <mxCell id="IE05HWNUYxFMif8N0jNp-36" value="До конца смены" style="text;html=1;strokeColor=none;fillColor=none;align=center;verticalAlign=middle;whiteSpace=wrap;rounded=0;" parent="1" vertex="1">
          <mxGeometry x="758" y="652" width="95.5" height="30" as="geometry" />
        </mxCell>
        <mxCell id="IE05HWNUYxFMif8N0jNp-37" value="&lt;font color=&quot;#000801&quot;&gt;3.75 ч. (55%)&lt;/font&gt;" style="rounded=0;whiteSpace=wrap;html=1;fontColor=#00FF22;" parent="1" vertex="1">
          <mxGeometry x="758" y="683.5" width="83" height="36" as="geometry" />
        </mxCell>
        <mxCell id="IE05HWNUYxFMif8N0jNp-40" value="" style="rounded=0;whiteSpace=wrap;html=1;" parent="1" vertex="1">
          <mxGeometry x="995" y="629" width="115" height="34" as="geometry" />
        </mxCell>
        <mxCell id="IE05HWNUYxFMif8N0jNp-41" value="" style="triangle;whiteSpace=wrap;html=1;rotation=90;" parent="1" vertex="1">
          <mxGeometry x="1090.5" y="644.5" width="13" height="23" as="geometry" />
        </mxCell>
        <mxCell id="IE05HWNUYxFMif8N0jNp-42" value="# 141" style="text;html=1;strokeColor=none;fillColor=none;align=center;verticalAlign=middle;whiteSpace=wrap;rounded=0;" parent="1" vertex="1">
          <mxGeometry x="1014" y="631" width="60" height="30" as="geometry" />
        </mxCell>
        <mxCell id="IE05HWNUYxFMif8N0jNp-43" value="&lt;font&gt;92&lt;/font&gt; т." style="text;html=1;strokeColor=none;fillColor=none;align=center;verticalAlign=middle;whiteSpace=wrap;rounded=0;fontSize=40;fontColor=#22FF12;" parent="1" vertex="1">
          <mxGeometry x="997" y="671.75" width="113" height="51" as="geometry" />
        </mxCell>
        <mxCell id="IE05HWNUYxFMif8N0jNp-44" value="Мгновенный вес" style="text;html=1;strokeColor=none;fillColor=none;align=center;verticalAlign=middle;whiteSpace=wrap;rounded=0;" parent="1" vertex="1">
          <mxGeometry x="1000" y="602" width="107" height="23" as="geometry" />
        </mxCell>
        <mxCell id="AHk2jDvn3Jps-UBXoMTn-4" value="Наибольший вклад экскаваторы" style="swimlane;fontStyle=0;childLayout=stackLayout;horizontal=1;startSize=30;horizontalStack=0;resizeParent=1;resizeParentMax=0;resizeLast=0;collapsible=1;marginBottom=0;whiteSpace=wrap;html=1;fillColor=#dae8fc;strokeColor=#6c8ebf;" parent="1" vertex="1">
          <mxGeometry x="273" y="-14" width="318" height="120" as="geometry" />
        </mxCell>
        <mxCell id="AHk2jDvn3Jps-UBXoMTn-5" value="206 | 1,3 тыс тонн | 0,5 тыс объём (20% руда / 60 рых)" style="text;strokeColor=#82b366;fillColor=#d5e8d4;align=left;verticalAlign=middle;spacingLeft=4;spacingRight=4;overflow=hidden;points=[[0,0.5],[1,0.5]];portConstraint=eastwest;rotatable=0;whiteSpace=wrap;html=1;" parent="AHk2jDvn3Jps-UBXoMTn-4" vertex="1">
          <mxGeometry y="30" width="318" height="30" as="geometry" />
        </mxCell>
        <mxCell id="AHk2jDvn3Jps-UBXoMTn-6" value="203 | 1,1 тыс тонн | 0,4 тыс объём (20% руда / 60 рых)" style="text;strokeColor=none;fillColor=none;align=left;verticalAlign=middle;spacingLeft=4;spacingRight=4;overflow=hidden;points=[[0,0.5],[1,0.5]];portConstraint=eastwest;rotatable=0;whiteSpace=wrap;html=1;" parent="AHk2jDvn3Jps-UBXoMTn-4" vertex="1">
          <mxGeometry y="60" width="318" height="30" as="geometry" />
        </mxCell>
        <mxCell id="AHk2jDvn3Jps-UBXoMTn-7" value="208 | 0,9 тыс тонн | 0,3 тыс объём (20% руда / 60 рых)" style="text;strokeColor=none;fillColor=none;align=left;verticalAlign=middle;spacingLeft=4;spacingRight=4;overflow=hidden;points=[[0,0.5],[1,0.5]];portConstraint=eastwest;rotatable=0;whiteSpace=wrap;html=1;" parent="AHk2jDvn3Jps-UBXoMTn-4" vertex="1">
          <mxGeometry y="90" width="318" height="30" as="geometry" />
        </mxCell>
        <mxCell id="AHk2jDvn3Jps-UBXoMTn-8" value="Наибольший вклад самосвалы" style="swimlane;fontStyle=0;childLayout=stackLayout;horizontal=1;startSize=30;horizontalStack=0;resizeParent=1;resizeParentMax=0;resizeLast=0;collapsible=1;marginBottom=0;whiteSpace=wrap;html=1;fillColor=#fff2cc;strokeColor=#d6b656;" parent="1" vertex="1">
          <mxGeometry x="601" y="-14" width="476" height="120" as="geometry" />
        </mxCell>
        <mxCell id="AHk2jDvn3Jps-UBXoMTn-9" value="143 | 20 рейсов | 70 км | 17км/ч | 1,3 тыс тонн | 0,5 тыс объём (20% руда / 60 рых)" style="text;strokeColor=#82b366;fillColor=#d5e8d4;align=left;verticalAlign=middle;spacingLeft=4;spacingRight=4;overflow=hidden;points=[[0,0.5],[1,0.5]];portConstraint=eastwest;rotatable=0;whiteSpace=wrap;html=1;" parent="AHk2jDvn3Jps-UBXoMTn-8" vertex="1">
          <mxGeometry y="30" width="476" height="30" as="geometry" />
        </mxCell>
        <mxCell id="AHk2jDvn3Jps-UBXoMTn-10" value="139 | 16 рейсов | 70 км | 17км/ч | 1,3 тыс тонн | 0,5 тыс объём (20% руда / 60 рых)" style="text;strokeColor=none;fillColor=none;align=left;verticalAlign=middle;spacingLeft=4;spacingRight=4;overflow=hidden;points=[[0,0.5],[1,0.5]];portConstraint=eastwest;rotatable=0;whiteSpace=wrap;html=1;" parent="AHk2jDvn3Jps-UBXoMTn-8" vertex="1">
          <mxGeometry y="60" width="476" height="30" as="geometry" />
        </mxCell>
        <mxCell id="AHk2jDvn3Jps-UBXoMTn-11" value="137 | 20 рейсов | 70 км | 17км/ч | 1,3 тыс тонн | 0,5 тыс объём (20% руда / 60 рых)" style="text;strokeColor=none;fillColor=none;align=left;verticalAlign=middle;spacingLeft=4;spacingRight=4;overflow=hidden;points=[[0,0.5],[1,0.5]];portConstraint=eastwest;rotatable=0;whiteSpace=wrap;html=1;" parent="AHk2jDvn3Jps-UBXoMTn-8" vertex="1">
          <mxGeometry y="90" width="476" height="30" as="geometry" />
        </mxCell>
        <mxCell id="AHk2jDvn3Jps-UBXoMTn-12" value="14:45&lt;br&gt;До конца смены осталось 35% (4.5 ч)" style="shape=parallelogram;perimeter=parallelogramPerimeter;whiteSpace=wrap;html=1;fixedSize=1;fillColor=#ffe6cc;strokeColor=#d79b00;" parent="1" vertex="1">
          <mxGeometry x="1083" y="-6" width="145" height="103" as="geometry" />
        </mxCell>
        <mxCell id="AHk2jDvn3Jps-UBXoMTn-13" value="Объёмы, факт" style="text;html=1;strokeColor=none;fillColor=none;align=center;verticalAlign=middle;whiteSpace=wrap;rounded=0;" parent="1" vertex="1">
          <mxGeometry x="298" y="-318" width="85" height="29" as="geometry" />
        </mxCell>
        <mxCell id="AHk2jDvn3Jps-UBXoMTn-15" value="220 000" style="swimlane;fontStyle=0;childLayout=stackLayout;horizontal=1;startSize=30;horizontalStack=0;resizeParent=1;resizeParentMax=0;resizeLast=0;collapsible=1;marginBottom=0;whiteSpace=wrap;html=1;fillColor=#f8cecc;strokeColor=#b85450;" parent="1" vertex="1">
          <mxGeometry x="273" y="-278" width="140" height="120" as="geometry" />
        </mxCell>
        <mxCell id="AHk2jDvn3Jps-UBXoMTn-16" value="Рыхляк: 130 000 | 60%" style="text;strokeColor=#82b366;fillColor=#d5e8d4;align=left;verticalAlign=middle;spacingLeft=4;spacingRight=4;overflow=hidden;points=[[0,0.5],[1,0.5]];portConstraint=eastwest;rotatable=0;whiteSpace=wrap;html=1;" parent="AHk2jDvn3Jps-UBXoMTn-15" vertex="1">
          <mxGeometry y="30" width="140" height="30" as="geometry" />
        </mxCell>
        <mxCell id="AHk2jDvn3Jps-UBXoMTn-17" value="Транзит: 70 000 | 25%" style="text;strokeColor=#b85450;fillColor=#f8cecc;align=left;verticalAlign=middle;spacingLeft=4;spacingRight=4;overflow=hidden;points=[[0,0.5],[1,0.5]];portConstraint=eastwest;rotatable=0;whiteSpace=wrap;html=1;" parent="AHk2jDvn3Jps-UBXoMTn-15" vertex="1">
          <mxGeometry y="60" width="140" height="30" as="geometry" />
        </mxCell>
        <mxCell id="AHk2jDvn3Jps-UBXoMTn-18" value="Руда: 40 000 | 15%" style="text;strokeColor=#b85450;fillColor=#f8cecc;align=left;verticalAlign=middle;spacingLeft=4;spacingRight=4;overflow=hidden;points=[[0,0.5],[1,0.5]];portConstraint=eastwest;rotatable=0;whiteSpace=wrap;html=1;" parent="AHk2jDvn3Jps-UBXoMTn-15" vertex="1">
          <mxGeometry y="90" width="140" height="30" as="geometry" />
        </mxCell>
        <mxCell id="AHk2jDvn3Jps-UBXoMTn-19" value="Объёмы, план" style="text;html=1;strokeColor=none;fillColor=none;align=center;verticalAlign=middle;whiteSpace=wrap;rounded=0;" parent="1" vertex="1">
          <mxGeometry x="469" y="-318" width="85" height="29" as="geometry" />
        </mxCell>
        <mxCell id="AHk2jDvn3Jps-UBXoMTn-20" value="350 000" style="swimlane;fontStyle=0;childLayout=stackLayout;horizontal=1;startSize=30;horizontalStack=0;resizeParent=1;resizeParentMax=0;resizeLast=0;collapsible=1;marginBottom=0;whiteSpace=wrap;html=1;" parent="1" vertex="1">
          <mxGeometry x="444" y="-278" width="140" height="120" as="geometry" />
        </mxCell>
        <mxCell id="AHk2jDvn3Jps-UBXoMTn-21" value="Рыхляк: 120 000 | 50%" style="text;strokeColor=none;fillColor=none;align=left;verticalAlign=middle;spacingLeft=4;spacingRight=4;overflow=hidden;points=[[0,0.5],[1,0.5]];portConstraint=eastwest;rotatable=0;whiteSpace=wrap;html=1;" parent="AHk2jDvn3Jps-UBXoMTn-20" vertex="1">
          <mxGeometry y="30" width="140" height="30" as="geometry" />
        </mxCell>
        <mxCell id="AHk2jDvn3Jps-UBXoMTn-22" value="Транзит: 90 000 | 35%" style="text;strokeColor=none;fillColor=none;align=left;verticalAlign=middle;spacingLeft=4;spacingRight=4;overflow=hidden;points=[[0,0.5],[1,0.5]];portConstraint=eastwest;rotatable=0;whiteSpace=wrap;html=1;" parent="AHk2jDvn3Jps-UBXoMTn-20" vertex="1">
          <mxGeometry y="60" width="140" height="30" as="geometry" />
        </mxCell>
        <mxCell id="AHk2jDvn3Jps-UBXoMTn-23" value="Руда: 48 000 | 20%" style="text;strokeColor=none;fillColor=none;align=left;verticalAlign=middle;spacingLeft=4;spacingRight=4;overflow=hidden;points=[[0,0.5],[1,0.5]];portConstraint=eastwest;rotatable=0;whiteSpace=wrap;html=1;" parent="AHk2jDvn3Jps-UBXoMTn-20" vertex="1">
          <mxGeometry y="90" width="140" height="30" as="geometry" />
        </mxCell>
        <mxCell id="AHk2jDvn3Jps-UBXoMTn-25" value="График производительности" style="text;html=1;strokeColor=none;fillColor=none;align=center;verticalAlign=middle;whiteSpace=wrap;rounded=0;" parent="1" vertex="1">
          <mxGeometry x="904.5" y="-296" width="178" height="26" as="geometry" />
        </mxCell>
        <mxCell id="AHk2jDvn3Jps-UBXoMTn-26" value="03" style="text;html=1;strokeColor=#d79b00;fillColor=#ffe6cc;align=center;verticalAlign=middle;whiteSpace=wrap;rounded=0;" parent="1" vertex="1">
          <mxGeometry x="813.5" y="-115" width="60" height="30" as="geometry" />
        </mxCell>
        <mxCell id="AHk2jDvn3Jps-UBXoMTn-27" value="04" style="text;html=1;strokeColor=#b85450;fillColor=#f8cecc;align=center;verticalAlign=middle;whiteSpace=wrap;rounded=0;" parent="1" vertex="1">
          <mxGeometry x="886" y="-115" width="60" height="30" as="geometry" />
        </mxCell>
        <mxCell id="AHk2jDvn3Jps-UBXoMTn-28" value="05" style="text;html=1;strokeColor=#82b366;fillColor=#d5e8d4;align=center;verticalAlign=middle;whiteSpace=wrap;rounded=0;" parent="1" vertex="1">
          <mxGeometry x="963.5" y="-115" width="60" height="30" as="geometry" />
        </mxCell>
        <mxCell id="AHk2jDvn3Jps-UBXoMTn-29" value="06" style="text;html=1;strokeColor=#82b366;fillColor=#d5e8d4;align=center;verticalAlign=middle;whiteSpace=wrap;rounded=0;" parent="1" vertex="1">
          <mxGeometry x="1053" y="-115" width="60" height="30" as="geometry" />
        </mxCell>
        <mxCell id="AHk2jDvn3Jps-UBXoMTn-30" value="" style="endArrow=none;html=1;rounded=0;" parent="1" edge="1">
          <mxGeometry width="50" height="50" relative="1" as="geometry">
            <mxPoint x="812" y="-178" as="sourcePoint" />
            <mxPoint x="836" y="-204" as="targetPoint" />
          </mxGeometry>
        </mxCell>
        <mxCell id="AHk2jDvn3Jps-UBXoMTn-31" value="" style="endArrow=none;html=1;rounded=0;" parent="1" target="AHk2jDvn3Jps-UBXoMTn-1" edge="1">
          <mxGeometry width="50" height="50" relative="1" as="geometry">
            <mxPoint x="835" y="-205" as="sourcePoint" />
            <mxPoint x="814.9999999999998" y="-206.65016501650143" as="targetPoint" />
            <Array as="points">
              <mxPoint x="912" y="-189" />
              <mxPoint x="984" y="-237" />
              <mxPoint x="1078" y="-198" />
              <mxPoint x="1128" y="-198" />
            </Array>
          </mxGeometry>
        </mxCell>
        <mxCell id="AHk2jDvn3Jps-UBXoMTn-33" value="Объёмы, прогноз (исходя из оставшегося рабочего времени)" style="text;html=1;strokeColor=none;fillColor=none;align=center;verticalAlign=middle;whiteSpace=wrap;rounded=0;" parent="1" vertex="1">
          <mxGeometry x="609" y="-323" width="154" height="47" as="geometry" />
        </mxCell>
        <mxCell id="AHk2jDvn3Jps-UBXoMTn-34" value="360 000" style="swimlane;fontStyle=0;childLayout=stackLayout;horizontal=1;startSize=30;horizontalStack=0;resizeParent=1;resizeParentMax=0;resizeLast=0;collapsible=1;marginBottom=0;whiteSpace=wrap;html=1;fillColor=#d5e8d4;strokeColor=#82b366;" parent="1" vertex="1">
          <mxGeometry x="607.5" y="-278" width="140" height="120" as="geometry" />
        </mxCell>
        <mxCell id="AHk2jDvn3Jps-UBXoMTn-35" value="Рыхляк: 140 000 | 60%" style="text;strokeColor=#9673a6;fillColor=#e1d5e7;align=left;verticalAlign=middle;spacingLeft=4;spacingRight=4;overflow=hidden;points=[[0,0.5],[1,0.5]];portConstraint=eastwest;rotatable=0;whiteSpace=wrap;html=1;" parent="AHk2jDvn3Jps-UBXoMTn-34" vertex="1">
          <mxGeometry y="30" width="140" height="30" as="geometry" />
        </mxCell>
        <mxCell id="AHk2jDvn3Jps-UBXoMTn-36" value="Транзит: 98 000 | 25%" style="text;strokeColor=#82b366;fillColor=#d5e8d4;align=left;verticalAlign=middle;spacingLeft=4;spacingRight=4;overflow=hidden;points=[[0,0.5],[1,0.5]];portConstraint=eastwest;rotatable=0;whiteSpace=wrap;html=1;" parent="AHk2jDvn3Jps-UBXoMTn-34" vertex="1">
          <mxGeometry y="60" width="140" height="30" as="geometry" />
        </mxCell>
        <mxCell id="AHk2jDvn3Jps-UBXoMTn-37" value="Руда: 42 000 | 15%" style="text;strokeColor=#b85450;fillColor=#f8cecc;align=left;verticalAlign=middle;spacingLeft=4;spacingRight=4;overflow=hidden;points=[[0,0.5],[1,0.5]];portConstraint=eastwest;rotatable=0;whiteSpace=wrap;html=1;" parent="AHk2jDvn3Jps-UBXoMTn-34" vertex="1">
          <mxGeometry y="90" width="140" height="30" as="geometry" />
        </mxCell>
        <mxCell id="isTXegSV-cHEMRRay1OZ-1" style="edgeStyle=orthogonalEdgeStyle;rounded=0;orthogonalLoop=1;jettySize=auto;html=1;" edge="1" parent="1" source="isTXegSV-cHEMRRay1OZ-2" target="isTXegSV-cHEMRRay1OZ-9">
          <mxGeometry relative="1" as="geometry" />
        </mxCell>
        <mxCell id="isTXegSV-cHEMRRay1OZ-2" value="Водитель" style="shape=umlActor;verticalLabelPosition=bottom;verticalAlign=top;html=1;outlineConnect=0;fillColor=#fff2cc;strokeColor=#d6b656;" vertex="1" parent="1">
          <mxGeometry x="2466" y="-115" width="30" height="60" as="geometry" />
        </mxCell>
        <mxCell id="isTXegSV-cHEMRRay1OZ-3" style="edgeStyle=orthogonalEdgeStyle;rounded=0;orthogonalLoop=1;jettySize=auto;html=1;entryX=0.145;entryY=0;entryDx=0;entryDy=4.35;entryPerimeter=0;" edge="1" parent="1" source="isTXegSV-cHEMRRay1OZ-4" target="isTXegSV-cHEMRRay1OZ-8">
          <mxGeometry relative="1" as="geometry" />
        </mxCell>
        <mxCell id="isTXegSV-cHEMRRay1OZ-4" value="экскаватор" style="shape=trapezoid;perimeter=trapezoidPerimeter;whiteSpace=wrap;html=1;fixedSize=1;fillColor=#fff2cc;strokeColor=#d6b656;" vertex="1" parent="1">
          <mxGeometry x="2334" y="-32" width="120" height="60" as="geometry" />
        </mxCell>
        <mxCell id="isTXegSV-cHEMRRay1OZ-5" style="edgeStyle=orthogonalEdgeStyle;rounded=0;orthogonalLoop=1;jettySize=auto;html=1;entryX=0.818;entryY=0.046;entryDx=0;entryDy=0;entryPerimeter=0;" edge="1" parent="1" source="isTXegSV-cHEMRRay1OZ-6" target="isTXegSV-cHEMRRay1OZ-8">
          <mxGeometry relative="1" as="geometry" />
        </mxCell>
        <mxCell id="isTXegSV-cHEMRRay1OZ-6" value="самосвал" style="shape=document;whiteSpace=wrap;html=1;boundedLbl=1;fillColor=#fff2cc;strokeColor=#d6b656;" vertex="1" parent="1">
          <mxGeometry x="2524" y="-42" width="120" height="80" as="geometry" />
        </mxCell>
        <mxCell id="isTXegSV-cHEMRRay1OZ-7" style="edgeStyle=orthogonalEdgeStyle;rounded=0;orthogonalLoop=1;jettySize=auto;html=1;" edge="1" parent="1" source="isTXegSV-cHEMRRay1OZ-8" target="isTXegSV-cHEMRRay1OZ-11">
          <mxGeometry relative="1" as="geometry" />
        </mxCell>
        <mxCell id="isTXegSV-cHEMRRay1OZ-8" value="база данных АСД" style="shape=cylinder3;whiteSpace=wrap;html=1;boundedLbl=1;backgroundOutline=1;size=15;fillColor=#f8cecc;strokeColor=#b85450;" vertex="1" parent="1">
          <mxGeometry x="2421" y="75" width="120" height="78" as="geometry" />
        </mxCell>
        <mxCell id="isTXegSV-cHEMRRay1OZ-9" value="планшет" style="shape=card;whiteSpace=wrap;html=1;fillColor=#d5e8d4;strokeColor=#82b366;" vertex="1" parent="1">
          <mxGeometry x="2194" y="-98" width="80" height="100" as="geometry" />
        </mxCell>
        <mxCell id="isTXegSV-cHEMRRay1OZ-10" style="edgeStyle=orthogonalEdgeStyle;rounded=0;orthogonalLoop=1;jettySize=auto;html=1;" edge="1" parent="1" source="isTXegSV-cHEMRRay1OZ-11" target="isTXegSV-cHEMRRay1OZ-12">
          <mxGeometry relative="1" as="geometry" />
        </mxCell>
        <mxCell id="isTXegSV-cHEMRRay1OZ-11" value="fastapi localhost" style="shape=parallelogram;perimeter=parallelogramPerimeter;whiteSpace=wrap;html=1;fixedSize=1;fillColor=#f8cecc;strokeColor=#b85450;" vertex="1" parent="1">
          <mxGeometry x="2406" y="205" width="120" height="60" as="geometry" />
        </mxCell>
        <mxCell id="isTXegSV-cHEMRRay1OZ-12" value="fastapi web 183.15.17.12" style="shape=parallelogram;perimeter=parallelogramPerimeter;whiteSpace=wrap;html=1;fixedSize=1;fillColor=#d5e8d4;strokeColor=#82b366;" vertex="1" parent="1">
          <mxGeometry x="2174" y="218" width="120" height="60" as="geometry" />
        </mxCell>
        <mxCell id="isTXegSV-cHEMRRay1OZ-13" value="" style="endArrow=classic;startArrow=classic;html=1;rounded=0;entryX=0.5;entryY=1;entryDx=0;entryDy=0;entryPerimeter=0;exitX=0.5;exitY=0;exitDx=0;exitDy=0;" edge="1" parent="1" source="isTXegSV-cHEMRRay1OZ-12" target="isTXegSV-cHEMRRay1OZ-9">
          <mxGeometry width="50" height="50" relative="1" as="geometry">
            <mxPoint x="2214" y="87" as="sourcePoint" />
            <mxPoint x="2264" y="37" as="targetPoint" />
          </mxGeometry>
        </mxCell>
        <mxCell id="isTXegSV-cHEMRRay1OZ-14" value="10.1&quot; Планшет DEXP Ursus B21 3G 16 ГБ черный&amp;nbsp;1280x800, IPS, 4x1.3 ГГц, 1 ГБ, 5000 мА*ч, Android 10.x&amp;nbsp; &amp;nbsp;49 990&amp;nbsp;тг&lt;br&gt;7&quot; Планшет DEXP Ursus B27 3G 16 ГБ черный 1024x600, IPS, 4x1.3 ГГц, 1 ГБ, 2500 мА*ч, Android 11.x&amp;nbsp; &amp;nbsp;24 990 тг&lt;br&gt;&lt;br&gt;Сим карта 5 000 тг/месяц&lt;br&gt;&lt;br&gt;https://www.dns-shop.kz/product/39602be7f2493332/101-planset-dexp-ursus-b21-3g-16-gb-cernyj/" style="text;html=1;strokeColor=none;fillColor=none;align=center;verticalAlign=middle;whiteSpace=wrap;rounded=0;fontStyle=1" vertex="1" parent="1">
          <mxGeometry x="1888" y="-213" width="692" height="93" as="geometry" />
        </mxCell>
        <mxCell id="isTXegSV-cHEMRRay1OZ-15" value="1 ядро / 1 RAM / 20 SSD&amp;nbsp; &amp;nbsp;2&amp;nbsp;800&amp;nbsp;тг/мес&lt;br&gt;&lt;br&gt;2 ядро / 2 RAM / 40 SSD&amp;nbsp; &amp;nbsp;5 700&lt;span style=&quot;border-color: var(--border-color); font-size: 14px;&quot;&gt;&amp;nbsp;тг/мес&lt;br&gt;&lt;/span&gt;&lt;br&gt;&lt;font&gt;доменное имя polykgp.site&amp;nbsp;&lt;/font&gt;3000 тг/год&lt;br&gt;&lt;br&gt;&lt;font&gt;&lt;span style=&quot;font-size: 14px;&quot;&gt;https://www.ps.kz/hosting/vps&lt;/span&gt;&lt;/font&gt;" style="text;html=1;strokeColor=none;fillColor=none;align=center;verticalAlign=middle;whiteSpace=wrap;rounded=0;fontStyle=1;fontFamily=Helvetica;fontColor=default;" vertex="1" parent="1">
          <mxGeometry x="2006" y="327" width="456" height="170" as="geometry" />
        </mxCell>
        <mxCell id="isTXegSV-cHEMRRay1OZ-16" value="мгновенный вес" style="shape=note;whiteSpace=wrap;html=1;backgroundOutline=1;darkOpacity=0.05;fillColor=#dae8fc;strokeColor=#6c8ebf;" vertex="1" parent="1">
          <mxGeometry x="1840" y="-52" width="80" height="100" as="geometry" />
        </mxCell>
        <mxCell id="isTXegSV-cHEMRRay1OZ-17" value="" style="shape=flexArrow;endArrow=classic;html=1;rounded=0;" edge="1" parent="1">
          <mxGeometry width="50" height="50" relative="1" as="geometry">
            <mxPoint x="2176" y="-45.5" as="sourcePoint" />
            <mxPoint x="1961" y="60" as="targetPoint" />
          </mxGeometry>
        </mxCell>
        <mxCell id="isTXegSV-cHEMRRay1OZ-18" value="рейсы" style="shape=note;whiteSpace=wrap;html=1;backgroundOutline=1;darkOpacity=0.05;fillColor=#dae8fc;strokeColor=#6c8ebf;" vertex="1" parent="1">
          <mxGeometry x="1843" y="59" width="80" height="100" as="geometry" />
        </mxCell>
        <mxCell id="isTXegSV-cHEMRRay1OZ-19" value="предиктивная аналитика" style="shape=note;whiteSpace=wrap;html=1;backgroundOutline=1;darkOpacity=0.05;fillColor=#dae8fc;strokeColor=#6c8ebf;" vertex="1" parent="1">
          <mxGeometry x="1937" y="92" width="80" height="100" as="geometry" />
        </mxCell>
      </root>
    </mxGraphModel>
  </diagram>
</mxfile>
